<svg xmlns="http://www.w3.org/2000/svg" viewBox="0 0 17 17"><style>.a{fill:#c3c3c3;}</style><title>allcases_icon</title><g data-name="Layer 2"><polygon points="12 2.5 11 2.5 11 1 6 1 6 2.5 5 2.5 5 0 12 0 12 2.5" class="a"/><rect y="2" width="17" height="1" class="a"/><path d="M11 17H6V4h5ZM7 16h3V5H7Z" class="a"/><path d="M17 17H12V4h5Zm-4-1h3V5H13Z" class="a"/><path d="M5 17H0V4H5ZM1 16H4V5H1Z" class="a"/><circle cx="2.5" cy="13.5" r="1" class="a"/><circle cx="8.5" cy="13.5" r="1" class="a"/><circle cx="14.5" cy="13.5" r="1" class="a"/></g></svg>