<svg xmlns="http://www.w3.org/2000/svg" viewBox="0 0 17.94 17.94"><title>assistance_icon</title><g data-name="Layer 2"><path d="M9,0a9,9,0,1,0,9,9A9,9,0,0,0,9,0Zm2.51,16.41a7.9,7.9,0,0,1-5,0l.38-.93a6.77,6.77,0,0,0,4.26,0Zm-.78-1.88a5.88,5.88,0,0,1-3.47,0l.43-1A4.67,4.67,0,0,0,9,13.71a4.67,4.67,0,0,0,1.31-.21ZM9,12.71A3.74,3.74,0,1,1,12.71,9,3.74,3.74,0,0,1,9,12.71ZM1.12,9a7.83,7.83,0,0,1,.41-2.52l.93.39a6.77,6.77,0,0,0,0,4.26l-.93.39A7.83,7.83,0,0,1,1.12,9Zm2.27,1.75a5.61,5.61,0,0,1,0-3.49l1,.43A4.67,4.67,0,0,0,4.24,9a4.67,4.67,0,0,0,.21,1.31ZM6.46,1.53a7.87,7.87,0,0,1,5,0l-.38.93a6.93,6.93,0,0,0-4.26,0Zm4.26,1.85-.44,1.06A4.67,4.67,0,0,0,9,4.24a4.67,4.67,0,0,0-1.31.21L7.22,3.39A5.92,5.92,0,0,1,10.72,3.38ZM13.5,7.66l1-.43a5.6,5.6,0,0,1,0,3.49l-1.06-.44A4.67,4.67,0,0,0,13.71,9,4.67,4.67,0,0,0,13.5,7.66Zm2-.82.93-.39a7.87,7.87,0,0,1,0,5l-.93-.39a6.78,6.78,0,0,0,0-4.26Zm.63-1.39-3,1.25a4.73,4.73,0,0,0-1.85-1.85l1.25-3A8,8,0,0,1,16.11,5.45ZM5.45,1.83l1.25,3A4.73,4.73,0,0,0,4.84,6.7l-3-1.25A8,8,0,0,1,5.45,1.83ZM1.83,12.5l3-1.25A4.74,4.74,0,0,0,6.69,13.1l-1.25,3A8,8,0,0,1,1.83,12.5Zm10.66,3.62-1.25-3a4.74,4.74,0,0,0,1.85-1.85l3,1.25A8,8,0,0,1,12.49,16.11Z" fill="#c3c3c3"/></g></svg>