<svg xmlns="http://www.w3.org/2000/svg" viewBox="0 0 47 34.79"><title>consult_icon</title><g id="Layer_2" data-name="Layer 2"><g id="Onboarding"><path d="M3.5,22.5h-1V4.5a2,2,0,0,1,2-2h37v1H4.5a1,1,0,0,0-1,1Z" style="fill:#c3c3c3"/><path d="M42.5,25.5H5.5v-1h37a1,1,0,0,0,1-1V5.5h1v18A2,2,0,0,1,42.5,25.5Z" style="fill:#c3c3c3"/><path d="M41,34.79,27.38,28H3.5A3.5,3.5,0,0,1,0,24.5V3.5A3.5,3.5,0,0,1,3.5,0h40A3.5,3.5,0,0,1,47,3.5v21A3.5,3.5,0,0,1,43.5,28H36.43ZM3.5,1A2.5,2.5,0,0,0,1,3.5v21A2.5,2.5,0,0,0,3.5,27H27.62L38,32.21,34.57,27H43.5A2.5,2.5,0,0,0,46,24.5V3.5A2.5,2.5,0,0,0,43.5,1Z" style="fill:#c3c3c3"/><path d="M25.15,13.64a3.5,3.5,0,1,0-4,0,6,6,0,0,0-4,5.65v1.44h12V19.28A6,6,0,0,0,25.15,13.64Zm-4.51-2.85a2.5,2.5,0,1,1,2.5,2.5A2.5,2.5,0,0,1,20.64,10.78Zm7.5,8.94h-10v-.44a5,5,0,0,1,10,0Z" style="fill:#c3c3c3"/></g></g></svg>