<svg xmlns="http://www.w3.org/2000/svg" viewBox="0 0 17 17"><title>dashboard_icon</title><g id="Layer_2" data-name="Layer 2"><g id="Onboarding"><polygon points="4.5 17 0 17 0 12.5 1 12.5 1 16 4.5 16 4.5 17" style="fill:#c3c3c3"/><polygon points="17 17 12.5 17 12.5 16 16 16 16 12.5 17 12.5 17 17" style="fill:#c3c3c3"/><polygon points="1 4.5 0 4.5 0 0 4.5 0 4.5 1 1 1 1 4.5" style="fill:#c3c3c3"/><path d="M17,4.5V0H12.5V1h2.83L12.39,3.94A6,6,0,0,0,9,2.53V.5H8v2A6,6,0,0,0,2.53,7.93H.5v1h2A6,6,0,0,0,8,14.47v2H9v-2a6,6,0,0,0,5.48-5.54h2v-1h-2A6,6,0,0,0,13.1,4.65L16,1.75V4.5ZM13.44,7.93H12.5v1h1A5,5,0,0,1,9,13.45V12.5H8v.95A5,5,0,0,1,3.54,8.93h1v-1H3.56A5,5,0,0,1,8,3.55V4.5H9V3.55a5,5,0,0,1,2.67,1.11L9.54,6.8a2,2,0,1,0,.69.72l2.14-2.14A4.94,4.94,0,0,1,13.44,7.93Z" style="fill:#c3c3c3"/></g></g></svg>