<svg xmlns="http://www.w3.org/2000/svg" viewBox="0 0 16.35 17"><title>datagraphview_icon</title><g id="Layer_2" data-name="Layer 2"><g id="Onboarding"><path d="M14.6,6.75A1.75,1.75,0,0,0,12.93,8H10.88a2.73,2.73,0,0,0-.44-1.06l1.41-1.41a1.75,1.75,0,1,0-.71-.71L9.73,6.24A2.73,2.73,0,0,0,8.68,5.8V3.42a1.75,1.75,0,1,0-1,0V5.8a2.73,2.73,0,0,0-1.06.44L5.21,4.83a1.77,1.77,0,1,0-.71.71L5.91,6.94A2.73,2.73,0,0,0,5.48,8H3.42a1.75,1.75,0,1,0,0,1H5.48a2.73,2.73,0,0,0,.44,1.06L4.51,11.46a1.75,1.75,0,1,0,.71.71l1.41-1.41a2.73,2.73,0,0,0,1.06.44v2.38a1.75,1.75,0,1,0,1,0V11.2a2.73,2.73,0,0,0,1.06-.44l1.41,1.41a1.75,1.75,0,1,0,.71-.71l-1.41-1.41A2.73,2.73,0,0,0,10.88,9h2.06A1.75,1.75,0,1,0,14.6,6.75ZM12.14,3.47a.75.75,0,1,1,0,1.06A.75.75,0,0,1,12.14,3.47ZM4.21,4.53a.75.75,0,1,1,0-1.06A.75.75,0,0,1,4.21,4.53ZM1.75,9.25A.75.75,0,1,1,2.5,8.5.75.75,0,0,1,1.75,9.25Zm2.46,4.28a.75.75,0,1,1,0-1.06A.75.75,0,0,1,4.21,13.53Zm7.93-1.06a.75.75,0,1,1,0,1.06A.75.75,0,0,1,12.14,12.47Zm-4-2.22A1.75,1.75,0,1,1,9.93,8.5,1.75,1.75,0,0,1,8.18,10.25Zm-.75-8.5a.75.75,0,1,1,.75.75A.75.75,0,0,1,7.43,1.75Zm1.5,13.5a.75.75,0,1,1-.75-.75A.75.75,0,0,1,8.93,15.25Zm5.68-6a.75.75,0,1,1,.75-.75A.75.75,0,0,1,14.6,9.25Z" style="fill:#555"/></g></g></svg>