<svg xmlns="http://www.w3.org/2000/svg" viewBox="0 0 50 34"><title>ideas_icon</title><g id="Layer_2" data-name="Layer 2"><g id="Onboarding"><path d="M39.47,13.5h0L50,13l-10.49-.5h0c0,.17,0,.33,0,.5S39.48,13.33,39.47,13.5Z" style="fill:#c3c3c3"/><path d="M10.53,12.5h0L0,13l10.52.5h0c0-.17,0-.33,0-.5S10.52,12.67,10.53,12.5Z" style="fill:#c3c3c3"/><path d="M38.57,18.07c-.12.32-.24.63-.38.93h0l5.25,1.63L38.61,18.1Z" style="fill:#c3c3c3"/><path d="M11.8,7,6.52,5.35l4.9,2.57h0c.12-.31.24-.62.38-.93Z" style="fill:#c3c3c3"/><path d="M38.6,7.91l4.88-2.56L38.21,7h0c.14.3.27.61.38.93Z" style="fill:#c3c3c3"/><path d="M11.4,18.09,6.52,20.65,11.78,19h0c-.14-.3-.27-.62-.38-.93Z" style="fill:#c3c3c3"/><path d="M25,26A13,13,0,1,1,38,13,13,13,0,0,1,25,26ZM25,1A12,12,0,1,0,37,13,12,12,0,0,0,25,1Z" style="fill:#c3c3c3"/><path d="M25,3a11.85,11.85,0,0,0-6.72,3.28A11.88,11.88,0,0,0,15,13a8.25,8.25,0,0,1,.4-4A9.22,9.22,0,0,1,21,3.4,8.27,8.27,0,0,1,25,3Z" style="fill:#c3c3c3"/><rect x="20.22" y="28.67" width="9" height="1" style="fill:#c3c3c3"/><rect x="21.22" y="30.79" width="7" height="1" style="fill:#c3c3c3"/><rect x="23.22" y="33" width="3" height="1" style="fill:#c3c3c3"/><polygon points="27.32 15.22 24.77 25.44 22.21 15.22 21.18 15.22 24.28 27.62 25.25 27.62 28.35 15.22 27.32 15.22" style="fill:#c3c3c3"/></g></g></svg>