<svg xmlns="http://www.w3.org/2000/svg" viewBox="0 0 16 16"><title>mapview_icon</title><g id="Layer_2" data-name="Layer 2"><g id="Onboarding"><polygon points="0.94 11.77 0 11.77 0 16 4.24 16 4.24 15.06 0.94 15.06 0.94 11.77" style="fill:#555"/><polygon points="15.06 15.06 11.77 15.06 11.77 16 16 16 16 11.77 15.06 11.77 15.06 15.06" style="fill:#555"/><polygon points="11.77 0 11.77 0.94 15.06 0.94 15.06 4.24 16 4.24 16 0 11.77 0" style="fill:#555"/><polygon points="0.94 0.94 4.24 0.94 4.24 0 0 0 0 4.24 0.94 4.24 0.94 0.94" style="fill:#555"/><polygon points="5.99 5.99 2.26 5.99 1.31 6.93 6.93 6.93 6.93 1.31 5.99 2.26 5.99 5.99" style="fill:#555"/><polygon points="13.74 5.99 10.02 5.99 10.02 2.26 9.07 1.31 9.07 6.93 14.69 6.93 13.74 5.99" style="fill:#555"/><polygon points="14.69 9.07 9.07 9.07 9.07 14.69 10.02 13.74 10.02 10.02 13.74 10.02 14.69 9.07" style="fill:#555"/><polygon points="2.26 10.02 5.99 10.02 5.99 13.74 6.93 14.69 6.93 9.07 1.31 9.07 2.26 10.02" style="fill:#555"/></g></g></svg>