<svg xmlns="http://www.w3.org/2000/svg" viewBox="0 0 17 17"><title>notifications_icon</title><g id="Layer_2" data-name="Layer 2"><g id="Onboarding"><path d="M17,15.06l-1.66-.94c-.06,0-1.46-.85-1.46-3.43v-3A5.47,5.47,0,0,0,10,2.52v-1a1.51,1.51,0,1,0-3,0v1A5.45,5.45,0,0,0,3,7.73v3a4,4,0,0,1-1.48,3.45L0,15.06H6.12a2.43,2.43,0,0,0,4.77,0H17ZM8.51,16a1.43,1.43,0,0,1-1.34-.94H9.85A1.43,1.43,0,0,1,8.51,16ZM3,14.06a5.55,5.55,0,0,0,1-3.37v-3A4.45,4.45,0,0,1,7.58,3.38L8,3.3V1.51a.51.51,0,1,1,1,0v1.8l.39.09a4.47,4.47,0,0,1,3.49,4.33v3a5.54,5.54,0,0,0,1,3.37Z" style="fill:#555"/></g></g></svg>