<svg xmlns="http://www.w3.org/2000/svg" viewBox="0 0 43 33.93"><title>policies_icon</title><g id="Layer_2" data-name="Layer 2"><g id="Onboarding"><path d="M21.5,0C9.65,0,0,8.3,0,18.5V19H1v-.5C1,9.62,8.8,2.27,18.86,1.16,16,3.75,14,10.43,14,18.5V19h1v-.5C15,9,18,1,21.5,1S28,9,28,18.5V19h1v-.5c0-8.07-2-14.75-4.86-17.34C34.2,2.27,42,9.62,42,18.5V19h1v-.5C43,8.3,33.35,0,21.5,0Z" style="fill:#c3c3c3"/><path d="M7.5,13a5.16,5.16,0,0,0-3.81,1.69A4.68,4.68,0,0,0,2.5,18.5a5.45,5.45,0,0,1,1.74-3.26,4.91,4.91,0,0,1,6.52,0A5.44,5.44,0,0,1,12.5,18.5a4.68,4.68,0,0,0-1.19-3.81A5.16,5.16,0,0,0,7.5,13Z" style="fill:#c3c3c3"/><path d="M39.31,14.69a5.14,5.14,0,0,0-7.62,0A4.68,4.68,0,0,0,30.5,18.5a5.45,5.45,0,0,1,1.74-3.26,4.91,4.91,0,0,1,6.52,0A5.44,5.44,0,0,1,40.5,18.5,4.68,4.68,0,0,0,39.31,14.69Z" style="fill:#c3c3c3"/><path d="M28.89,28.43c0,2.48-1.55,4.5-3.44,4.5s-3.44-2-3.44-4.5V14a4.93,4.93,0,0,1,2.76,1.2A5.44,5.44,0,0,1,26.5,18.5a4.68,4.68,0,0,0-1.19-3.81,5.14,5.14,0,0,0-7.62,0A4.68,4.68,0,0,0,16.5,18.5a5.45,5.45,0,0,1,1.74-3.26A4.94,4.94,0,0,1,21,14V28.43c0,3,2,5.5,4.44,5.5s4.44-2.47,4.44-5.5v-.5h-1Z" style="fill:#c3c3c3"/></g></g></svg>