<svg xmlns="http://www.w3.org/2000/svg" viewBox="0 0 34.41 34.41"><title>resources_icon</title><g id="Layer_2" data-name="Layer 2"><g id="Onboarding"><path d="M17.21,26.71a9.5,9.5,0,1,1,9.5-9.5A9.51,9.51,0,0,1,17.21,26.71Zm0-18a8.5,8.5,0,1,0,8.5,8.5A8.51,8.51,0,0,0,17.21,8.71Z" style="fill:#c3c3c3"/><path d="M17.21,23.71a6.5,6.5,0,1,1,6.5-6.5A6.51,6.51,0,0,1,17.21,23.71Zm0-12a5.5,5.5,0,1,0,5.5,5.5A5.51,5.51,0,0,0,17.21,11.71Z" style="fill:#c3c3c3"/><polygon points="20.98 5.19 17.21 1.41 13.44 5.19 12.73 4.48 17.21 0 21.69 4.48 20.98 5.19" style="fill:#c3c3c3"/><polygon points="17.21 34.41 12.73 29.94 13.44 29.23 17.21 33 20.98 29.23 21.69 29.94 17.21 34.41" style="fill:#c3c3c3"/><polygon points="29.94 21.69 29.23 20.98 33 17.21 29.23 13.44 29.94 12.73 34.41 17.21 29.94 21.69" style="fill:#c3c3c3"/><polygon points="4.48 21.69 0 17.21 4.48 12.73 5.19 13.44 1.41 17.21 5.19 20.98 4.48 21.69" style="fill:#c3c3c3"/><polygon points="29.38 29.38 23.04 29.38 23.04 28.38 28.38 28.38 28.38 23.04 29.38 23.04 29.38 29.38" style="fill:#c3c3c3"/><polygon points="6.04 11.37 5.04 11.37 5.04 5.04 11.37 5.04 11.37 6.04 6.04 6.04 6.04 11.37" style="fill:#c3c3c3"/><polygon points="29.38 11.37 28.38 11.37 28.38 6.04 23.04 6.04 23.04 5.04 29.38 5.04 29.38 11.37" style="fill:#c3c3c3"/><polygon points="11.37 29.38 5.04 29.38 5.04 23.04 6.04 23.04 6.04 28.38 11.37 28.38 11.37 29.38" style="fill:#c3c3c3"/></g></g></svg>