<svg xmlns="http://www.w3.org/2000/svg" viewBox="0 0 15 15"><title>seeoncalendar_icon</title><g id="Layer_2" data-name="Layer 2"><g id="Onboarding"><rect x="7" y="4" width="2" height="2" style="fill:#555"/><rect x="7" y="10" width="2" height="2" style="fill:#555"/><rect x="10" y="13" width="2" height="2" style="fill:#555"/><rect x="10" y="7" width="2" height="2" style="fill:#555"/><rect x="10" y="10" width="2" height="2" style="fill:#555"/><rect x="4" y="13" width="2" height="2" style="fill:#555"/><rect x="10" y="4" width="2" height="2" style="fill:#555"/><rect x="4" y="10" width="2" height="2" style="fill:#555"/><rect x="7" y="13" width="2" height="2" style="fill:#555"/><rect x="4" y="7" width="2" height="2" style="fill:#555"/><rect x="4" y="4" width="2" height="2" style="fill:#555"/><rect x="7" y="7" width="2" height="2" style="fill:#555"/><rect y="10" width="3" height="2" style="fill:#555"/><rect y="7" width="3" height="2" style="fill:#555"/><rect y="4" width="3" height="2" style="fill:#555"/><rect y="13" width="3" height="2" style="fill:#555"/><rect x="13" y="4" width="2" height="2" style="fill:#555"/><rect width="15" height="3" style="fill:#555"/><rect x="13" y="7" width="2" height="2" style="fill:#555"/><rect x="13" y="10" width="2" height="2" style="fill:#555"/><rect x="13" y="13" width="2" height="2" style="fill:#555"/></g></g></svg>