<svg xmlns="http://www.w3.org/2000/svg" viewBox="0 0 12 12"><title>settings_icon</title><g id="Layer_2" data-name="Layer 2"><g id="Onboarding"><path d="M10,4.74A4.19,4.19,0,0,0,9.75,4l1.15-1.5a6,6,0,0,0-.65-.78h0a6,6,0,0,0-.78-.65L8,2.25A4.19,4.19,0,0,0,7.26,2L7,.09A6,6,0,0,0,6,0,6,6,0,0,0,5,.09L4.74,2a4.19,4.19,0,0,0-.7.29L2.54,1.11a6,6,0,0,0-.78.65h0a6,6,0,0,0-.65.78L2.25,4a4.2,4.2,0,0,0-.29.7L.09,5A6,6,0,0,0,0,6,6,6,0,0,0,.09,7L2,7.26a4.2,4.2,0,0,0,.29.7L1.11,9.46a6,6,0,0,0,1.43,1.43L4,9.75a4.2,4.2,0,0,0,.7.29L5,11.91A6,6,0,0,0,6,12a6,6,0,0,0,1-.09L7.26,10A4.2,4.2,0,0,0,8,9.75l1.5,1.15a6,6,0,0,0,1.43-1.43L9.75,8a4.19,4.19,0,0,0,.29-.7L11.91,7A6,6,0,0,0,12,6a6,6,0,0,0-.09-1ZM6,9A3,3,0,1,1,9,6,3,3,0,0,1,6,9Z" style="fill:#555"/></g></g></svg>