<svg xmlns="http://www.w3.org/2000/svg" viewBox="0 0 51 34"><title>Asset 1</title><g id="Layer_2" data-name="Layer 2"><g id="Onboarding"><path d="M33.86,0a17.21,17.21,0,0,0-5.65.95l-.43.15c.34.23.67.48,1,.72A16.14,16.14,0,0,1,50,17a16.16,16.16,0,0,1-30.38,7.52,7.94,7.94,0,0,1-1,.25l.07.14A17.16,17.16,0,0,0,51,17,17.09,17.09,0,0,0,33.86,0Z" style="fill:#c3c3c3"/><path d="M33.86,22.5a5.5,5.5,0,1,1,5.5-5.5A5.51,5.51,0,0,1,33.86,22.5Zm0-10a4.5,4.5,0,1,0,4.5,4.5A4.5,4.5,0,0,0,33.86,12.5Z" style="fill:#c3c3c3"/><path d="M17.14,22.5a5.5,5.5,0,1,1,5.5-5.5A5.51,5.51,0,0,1,17.14,22.5Zm0-10a4.5,4.5,0,1,0,4.5,4.5A4.5,4.5,0,0,0,17.14,12.5Z" style="fill:#c3c3c3"/><path d="M17.14,33A16.09,16.09,0,0,1,1,17,16.16,16.16,0,0,1,31.38,9.48a7.9,7.9,0,0,1,1-.26l-.05-.1A17.16,17.16,0,0,0,0,17,17.17,17.17,0,0,0,22.81,33l.4-.14c-.35-.23-.69-.47-1-.72A16.2,16.2,0,0,1,17.14,33Z" style="fill:#c3c3c3"/></g></g></svg>