<svg xmlns="http://www.w3.org/2000/svg" viewBox="0 0 49.19 33.01"><title>training_icon</title><g id="Layer_2" data-name="Layer 2"><g id="Onboarding"><path d="M22,21.17V12.43l7.49,4.37Zm1-7v5.26l4.51-2.63Z" style="fill:#c3c3c3"/><path d="M49,16.24a51.79,51.79,0,0,0-11-11.59h0l-.52-.39v0A14.92,14.92,0,0,0,29,1.6,15.08,15.08,0,0,0,14,15.34a10.71,10.71,0,0,0-.07,1.17s0,.05,0,.08,0,.05,0,.08h0A10.64,10.64,0,0,0,31.48,24.6a14,14,0,0,1-19.8,2.92h0a50.75,50.75,0,0,1-10.48-11A51.76,51.76,0,0,1,10,6.78h0a31.51,31.51,0,0,1,6.69-4.65A18.84,18.84,0,0,1,24.6,0a19.09,19.09,0,0,0-8.08,1.67A32.26,32.26,0,0,0,9.4,6h0A52.54,52.54,0,0,0,.18,16.24L0,16.51l.18.27a51.24,51.24,0,0,0,11.46,12l0,0a14.93,14.93,0,0,0,8.5,2.64,15.09,15.09,0,0,0,15-13.66,10.7,10.7,0,0,0,.07-1.2s0-.07,0-.11,0-.07,0-.11h0a10.64,10.64,0,0,0-17.7-7.76A14,14,0,0,1,37.45,5.44h0A50.67,50.67,0,0,1,48,16.51a52.06,52.06,0,0,1-8.38,9.35h0a32.43,32.43,0,0,1-6.87,4.91A19,19,0,0,1,24.6,33,19.25,19.25,0,0,0,33,31.21a33.17,33.17,0,0,0,7.31-4.6h0A52.74,52.74,0,0,0,49,16.78l.18-.27ZM24.56,6.85a9.67,9.67,0,0,1,9.66,9.55c0,.4,0,.8-.06,1.2a9.66,9.66,0,0,1-19.25-1c0-.39,0-.77.06-1.15A9.67,9.67,0,0,1,24.56,6.85Z" style="fill:#c3c3c3"/></g></g></svg>